<?xml version="1.0" encoding="utf-8"?><!-- Uploaded to: SVG Repo, www.svgrepo.com, Generator: SVG Repo Mixer Tools -->
<svg width="800px" height="800px" viewBox="0 0 24 24" fill="none" xmlns="http://www.w3.org/2000/svg">
<path fill-rule="evenodd" clip-rule="evenodd" d="M5.5 17C2.46243 17 0 14.5376 0 11.5C0 8.46243 2.46243 6 5.5 6C8.53757 6 11 8.46243 11 11.5C11 12.8296 10.5282 14.0491 9.74284 15H14.2572C13.4718 14.0491 13 12.8296 13 11.5C13 8.46243 15.4624 6 18.5 6C21.5376 6 24 8.46243 24 11.5C24 14.5376 21.5376 17 18.5 17H5.5ZM2.01478 11.5C2.01478 13.4248 3.57516 14.9852 5.5 14.9852C7.42484 14.9852 8.98522 13.4248 8.98522 11.5C8.98522 9.57516 7.42484 8.01478 5.5 8.01478C3.57516 8.01478 2.01478 9.57516 2.01478 11.5ZM15.0148 11.5C15.0148 13.4248 16.5752 14.9852 18.5 14.9852C20.4248 14.9852 21.9852 13.4248 21.9852 11.5C21.9852 9.57516 20.4248 8.01478 18.5 8.01478C16.5752 8.01478 15.0148 9.57516 15.0148 11.5Z" fill="black"/>
</svg>